<svg width="64" height="64" xmlns="http://www.w3.org/2000/svg">
 <defs>
  <linearGradient id="SVGID_1_" x1="0.50183" x2="0.50183" y1="0.01353" y2="0.95792">
   <stop offset="0" stop-color="#1a6dff"/>
   <stop offset="1" stop-color="#c822ff"/>
  </linearGradient>
  <linearGradient id="SVGID_2_" x1="0.5" x2="0.5" y1="0" y2="1.02663">
   <stop offset="0" stop-color="#6dc7ff"/>
   <stop offset="1" stop-color="#e6abff"/>
  </linearGradient>
  <linearGradient id="SVGID_3_" x1="0.5" x2="0.5" y1="0.00537" y2="0.91575">
   <stop offset="0" stop-color="#6dc7ff"/>
   <stop offset="1" stop-color="#e6abff"/>
  </linearGradient>
  <linearGradient id="SVGID_4_" x1="0.5" x2="0.5" y1="0.00263" y2="0.96662">
   <stop offset="0" stop-color="#6dc7ff"/>
   <stop offset="1" stop-color="#e6abff"/>
  </linearGradient>
 </defs>
 <g>
  <title>Layer 1</title>
  <path fill="url(#SVGID_1_)" d="m57.9,28.5l-22.4,-22.4c-0.9,-0.9 -2.2,-1.5 -3.5,-1.5s-2.6,0.5 -3.5,1.5l-22.4,22.4c-0.9,0.9 -1.5,2.2 -1.5,3.5s0.5,2.6 1.5,3.5l22.3,22.3c0.9,0.9 2.2,1.5 3.5,1.5s2.6,-0.5 3.5,-1.5l22.3,-22.3c0.9,-0.9 1.5,-2.2 1.5,-3.5s-0.4,-2.6 -1.3,-3.5zm-1.4,5.6l-22.4,22.4c-1.1,1.1 -3.1,1.1 -4.2,0l-22.4,-22.4c-0.5,-0.5 -0.8,-1.3 -0.8,-2.1s0.3,-1.6 0.9,-2.1l16,-16l6.5,6.5l0,0l0,22.6l2,0l0,-20.6l10.8,10.8l1.4,-1.4l-19.4,-19.3l5,-5c0.5,-0.5 1.3,-0.8 2.1,-0.8s1.6,0.3 2.1,0.9l22.3,22.3c0.6,0.6 0.9,1.3 0.9,2.1s-0.3,1.6 -0.8,2.1z" id="svg_1"/>
  <circle cx="31" cy="43" r="4" fill="url(#SVGID_2_)" id="svg_2"/>
  <circle cx="31" cy="21" r="4" fill="url(#SVGID_3_)" id="svg_3"/>
  <g id="svg_4">
   <circle cx="43" cy="32" r="4" fill="url(#SVGID_4_)" id="svg_5"/>
  </g>
  <text fill="#000000" x="52.4476" y="11.72391" id="svg_6" font-size="24" font-family="sans-serif" text-anchor="start" xml:space="preserve" font-weight="bold" font-style="normal" stroke="#000" transform="matrix(0.54161 0 0 0.471078 -26.5604 4.48106)">GiT</text>
 </g>
</svg>